# xmcd
#
# Track frame offsets:
#	150
#	10426
#	30033
#	45821
#	55919
#	71487
#	83723
#	95162
#	108376
#	118453
#	134247
#	143513
#	156522
#	171335
#	188912
#	204950
#	215964
#	230758
#	244730
#
# Disc length: 3395 seconds
#
# Revision: 0
# Processed by: cddbd v1.5.2PL0 Copyright (c) Steve Scherf et al.
# Submitted via: EasyCDDAExtractor 16.0.6.1
#
DISCID=170d4113
DTITLE=패티킴 - THE MUSICAN SERIES
DYEAR=1900
DGENRE=Country
TTITLE0=초우
TTITLE1=연인의 길
TTITLE2=바닷가에서
TTITLE3=꿈
TTITLE4=빙우
TTITLE5=내 사랑아
TTITLE6=사랑의 맹세
TTITLE7=파드레
TTITLE8=슬픈 마음
TTITLE9=욕망의 그림자
TTITLE10=사랑의 이미지
TTITLE11=태양이 뜨거울때
TTITLE12=하와이 연정
TTITLE13=레만호에 지다
TTITLE14=사랑의 세레나데
TTITLE15=서울의 태양
TTITLE16=섬머타임
TTITLE17=아 목동아
TTITLE18=굿바이 왈츠
EXTD=
EXTT0=
EXTT1=
EXTT2=
EXTT3=
EXTT4=
EXTT5=
EXTT6=
EXTT7=
EXTT8=
EXTT9=
EXTT10=
EXTT11=
EXTT12=
EXTT13=
EXTT14=
EXTT15=
EXTT16=
EXTT17=
EXTT18=
PLAYORDER=
